<?xml version="1.0" standalone="no"?>
<!DOCTYPE svg PUBLIC "-//W3C//DTD SVG 20010904//EN"
 "http://www.w3.org/TR/2001/REC-SVG-20010904/DTD/svg10.dtd">
<svg version="1.0" xmlns="http://www.w3.org/2000/svg"
 width="260.000000pt" height="260.000000pt" viewBox="0 0 260.000000 260.000000"
 preserveAspectRatio="xMidYMid meet">
<metadata>
Created by potrace 1.14, written by Peter Selinger 2001-2017
</metadata>
<g transform="translate(0.000000,260.000000) scale(0.100000,-0.100000)"
fill="#000000" stroke="none">
<path d="M1120 2590 c-25 -4 -63 -11 -85 -14 -109 -18 -319 -104 -438 -180
-301 -193 -525 -532 -580 -879 -18 -114 -19 -330 -1 -432 90 -510 458 -911
959 -1045 114 -30 160 -35 340 -34 177 0 270 15 414 66 461 163 784 557 861
1051 14 91 6 344 -14 437 -115 530 -516 919 -1057 1025 -50 10 -347 13 -399 5z
m385 -84 c83 -18 197 -52 259 -78 392 -161 683 -531 744 -948 9 -58 9 -302 0
-360 -73 -498 -466 -913 -958 -1014 -130 -26 -275 -34 -372 -21 -21 3 -53 7
-70 9 -117 14 -313 86 -433 159 -369 224 -592 616 -596 1046 -3 344 157 691
425 923 172 149 402 256 609 284 23 4 44 8 46 10 7 6 312 -3 346 -10z"/>
<path d="M1200 2374 c-293 -45 -472 -129 -654 -308 -157 -155 -267 -359 -306
-571 -15 -80 -19 -241 -7 -330 11 -91 23 -142 29 -125 2 8 17 53 32 99 27 84
72 165 118 211 18 18 28 45 38 100 29 169 96 301 230 453 30 35 147 123 210
159 100 57 259 99 388 102 270 8 511 -106 703 -330 l26 -31 118 3 c65 2 119 5
121 7 10 10 -111 172 -182 242 -161 164 -385 279 -599 311 -49 7 -235 13 -265
8z"/>
<path d="M2249 1512 l-106 -3 12 -77 c25 -180 1 -340 -76 -502 -186 -391 -628
-584 -1040 -454 l-78 25 -39 -20 c-51 -26 -150 -51 -202 -51 -41 0 -42 -1 -27
-18 49 -54 315 -161 442 -177 356 -46 679 60 923 302 211 211 327 499 317 790
-2 74 -14 188 -19 188 0 0 -49 -1 -107 -3z"/>
</g>
</svg>
