<svg xmlns="http://www.w3.org/2000/svg" xmlns:xlink="http://www.w3.org/1999/xlink" viewBox="0 0 523.02 291.26"><defs><style>.cls-1{fill:#003f5c;}.cls-2{fill:url(#linear-gradient);}</style><linearGradient id="linear-gradient" x1="47.98" y1="254.04" x2="242.27" y2="38.34" gradientUnits="userSpaceOnUse"><stop offset="0" stop-color="#003f5c"/><stop offset="0.23" stop-color="#58508d"/><stop offset="0.51" stop-color="#bc5090"/><stop offset="0.76" stop-color="#ff6361"/><stop offset="1" stop-color="#ffa600"/></linearGradient></defs><g id="Layer_2" data-name="Layer 2"><g id="Layer_1-2" data-name="Layer 1"><path class="cls-1" d="M522.77,166.13a42.43,42.43,0,0,0-1.36-4.38l-1.21-1.81-5.43-5.43a77.81,77.81,0,0,0-6-5.44A56,56,0,0,0,503,145a9.25,9.25,0,0,0-4.53-1.66c-2,.2-4.37,1.35-7.09,3.47a80.37,80.37,0,0,0-7.7,6.79c.6-1.21,1.16-2.26,1.66-3.17s.95-1.66,1.36-2.26a18.39,18.39,0,0,1,1.21-2.12l-16.31-10.26a10.09,10.09,0,0,0-4.22-.3,3.8,3.8,0,0,0-2.27,1.2,8.23,8.23,0,0,0-1.05,1.51q-7.32,15.2-12.65,28.8a7.88,7.88,0,0,0-.16-.87,42.43,42.43,0,0,0-1.36-4.38l-1.21-1.81-5.43-5.43a77.81,77.81,0,0,0-6-5.44,56,56,0,0,0-5.74-4.07,9.25,9.25,0,0,0-4.53-1.66c-2,.2-4.37,1.35-7.09,3.47a81.61,81.61,0,0,0-7.7,6.79c.6-1.21,1.16-2.26,1.66-3.17s.95-1.66,1.36-2.26a18.39,18.39,0,0,1,1.21-2.12l-16.31-10.26a10.09,10.09,0,0,0-4.22-.3,3.8,3.8,0,0,0-2.27,1.2,8.23,8.23,0,0,0-1.05,1.51q-6.24,13-11,24.77c-1.64,1.79-3.34,3.59-5.12,5.42q-5.89,6-11.18,11.17t-9.05,8.61c-2.52,2.31-3.88,3.58-4.08,3.77a92.28,92.28,0,0,1,4.53-11q2.71-5.58,5.43-10.26c1.82-3.12,3.52-5.94,5.14-8.46s2.81-4.37,3.62-5.58a2.06,2.06,0,0,0,.6-1.51,2.61,2.61,0,0,0-.9-1.81q-1.82-2.12-5.44-5.59a45.83,45.83,0,0,0-6.94-5.58,5.5,5.5,0,0,0-4.53.15,21.87,21.87,0,0,0-5.43,3.17c-.61.4-1.72,1.21-3.32,2.41A83.77,83.77,0,0,0,337,154.2a68.46,68.46,0,0,0-5.44,5.44,100.21,100.21,0,0,0-14.19,16,61.5,61.5,0,0,1,8.46-11.78,55.51,55.51,0,0,0,6-7.24,5.44,5.44,0,0,0,.61-1.51,2.59,2.59,0,0,0-.91-1.81q-1.81-2.12-5.43-5.59a45.87,45.87,0,0,0-7-5.58,5.5,5.5,0,0,0-4.53.15,21.87,21.87,0,0,0-5.43,3.17c-.6.4-1.16.81-1.66,1.21s-1.06.8-1.66,1.2A85.09,85.09,0,0,0,298,154.2a66.35,66.35,0,0,0-5.43,5.44,102.08,102.08,0,0,0-8,8.3q-3.46,4.08-6.49,8c1.61-3.21,3.33-6.34,5.14-9.36s3.72-6,5.73-9.06a37.91,37.91,0,0,1,2.72-3.32l1.21-1.81q-1.51-1.5-3.62-3.47c-1.42-1.31-2.62-2.46-3.63-3.47s-2.06-2-3.17-2.87a27.1,27.1,0,0,0-3.17-2.26,3.24,3.24,0,0,0-4.07-.15,14.64,14.64,0,0,0-3.17,2.86,179.18,179.18,0,0,0-11.45,21.54c-1.11,1.52-2.26,3-3.5,4.58q-5,6.19-9.2,11.32-5.44,5.75-10.57,11.47a22.18,22.18,0,0,1,1.36-7.24,47,47,0,0,1,3.17-7.25c1.4-2.61,3-5.33,4.83-8.15l-17.51-3.92c-1.62-.41-2.77-.26-3.48.45a7.16,7.16,0,0,0-1.35,1.66,110.6,110.6,0,0,1-8.91,13.13q-4.68,5.9-8.76,10.12t-6.79,6.64a15.87,15.87,0,0,1-3,2.41c-.4.41-.6.3-.6-.3l-.3-.3A72.66,72.66,0,0,1,205,178.06a79,79,0,0,1,12.08-14.65,64.43,64.43,0,0,1,12.68-9.36,78.16,78.16,0,0,1,10.57-5c1-.4,1.51-.9,1.51-1.51a1.34,1.34,0,0,0-1.51-1.51l-20.23-3.32a5.54,5.54,0,0,0-2.57,0,6.9,6.9,0,0,1-1.35.3q-13.59,3.93-22,12.08a71.66,71.66,0,0,0-8.14,9.28c-1,1-1.95,2-3,3l-11.5,11.5q-5.45,5.44-9.23,9.39c-2.53,2.62-3.89,4-4.09,4.23.4-1.61.8-3.17,1.21-4.69s.8-3.07,1.21-4.69c.61-2.22,1.26-4.54,2-7s1.46-4.74,2.27-7q2.73-7.28,5.9-15.14t6.66-15.44q3.48-7.56,7-14.53l6.21-12.41q9.69.3,18.62.61t16,.6q7.11.3,12,.45c3.22.11,5.45.15,6.66.15h8.32a55.69,55.69,0,0,0,7.42-.45,14.18,14.18,0,0,0,5.9-2.12,8.36,8.36,0,0,0,3.48-5.3,12.46,12.46,0,0,0,.31-7.11,32.24,32.24,0,0,0-1.52-4.09c0-.19-.3-.3-.91-.3l-.3.3c-1.62,1-4.59,1.77-8.93,2.27s-9.58.87-15.74,1.06-12.92.26-20.28.15-15-.25-22.86-.45c.61-1,1.21-2,1.82-2.88a14.83,14.83,0,0,0,1.51-2.87c1.41-2.22,1.72-4,.91-5.45a5.9,5.9,0,0,0-2.72-2.72L188.5,78.11a6,6,0,0,0-4.24-.91A4.34,4.34,0,0,0,182,78.26l-1.36,1.36q-2.43,4.25-4.69,8.48t-4.39,8.47c-5.86-.2-10.14-.45-12.87-.75l-1.6-.19c.38-1,.72-2,1-3a19.07,19.07,0,0,0,.45-7.87,14.62,14.62,0,0,0-3.93-7.57A11.56,11.56,0,0,0,149.45,73a34,34,0,0,0-6.36-1.82A39.45,39.45,0,0,0,131.74,71a45.49,45.49,0,0,0-16.35,5.45A45.2,45.2,0,0,0,111.31,79a75.06,75.06,0,0,0-7.72,6.66A37.41,37.41,0,0,0,96,96.57a50,50,0,0,0-4.24,15.75q-1.07,9.08,2.27,20.58,3.93,13.32,6.36,22.7T104,172.25a69.74,69.74,0,0,1,1.06,13,70.15,70.15,0,0,1-1.36,11.81q-2.43,12.1-8.78,19.22t-13.32,7.11a13.86,13.86,0,0,1-7-2.12,19.85,19.85,0,0,1-6.51-6.5,36.13,36.13,0,0,1-4.54-10.9,48.37,48.37,0,0,1-1.06-15.29A56.87,56.87,0,0,1,65.29,173a94.36,94.36,0,0,1,5.6-13.62,78,78,0,0,1,6.66-10.9q3.48-4.69,6.21-7.72a1.77,1.77,0,0,0,.3-1.67c-.2-.5-.4-.95-.6-1.36a19.5,19.5,0,0,0-3.79-1.21,19.19,19.19,0,0,0-6.81,0c-4.64.41-8.28,1.36-10.9,2.88s-4.44,2.57-5.45,3.18a39,39,0,0,0-10.44,12.26,65.92,65.92,0,0,0-6.66,16.8,76.62,76.62,0,0,0-2.27,18.62,58.78,58.78,0,0,0,2.42,17.4,34.82,34.82,0,0,0,7.87,14.68,36,36,0,0,0,12.72,8.93,42.45,42.45,0,0,0,15.74,3.18,54.56,54.56,0,0,0,17.25-2.57,43.83,43.83,0,0,0,15.59-8.17A63.49,63.49,0,0,0,121,210.55a60.43,60.43,0,0,0,7.87-15.74,45.18,45.18,0,0,0,2.43-15.9A67.15,67.15,0,0,0,128.56,163q-2.43-8.33-5.14-16t-5.15-14.38a42.17,42.17,0,0,1-2.73-10.9,45.65,45.65,0,0,1,2-16.8,48.1,48.1,0,0,1,6.21-13.47q5.15-6.66,10.59-8.18h1.82a3.79,3.79,0,0,1,2.12.61,2.07,2.07,0,0,1,.6,1.51,3.73,3.73,0,0,1-.9,2.12c-.61,1-1.57,2.53-2.88,4.54s-2.78,4.34-4.39,7-3.13,5.35-4.54,8.18a39.53,39.53,0,0,0-3,7.87,20.1,20.1,0,0,0-.6,4.39q-.32,3.78,3,7.11a30.55,30.55,0,0,0,4.08,3.33A27.15,27.15,0,0,0,137,133.2h.6q.6-1.51,2-4.69c.91-2.12,1.86-4.39,2.88-6.81q2.12-3.93,4.69-8.48l.81-1.44,1-.07q5.3-.3,15-.3-1.51,3.33-3.78,9.08c-1.52,3.83-2.68,6.66-3.48,8.47q-1.53,3.34-4.09,10.45t-5.45,16.5q-2.88,9.38-5.3,20.58a217.94,217.94,0,0,0-3.63,22.4,16.12,16.12,0,0,1-.15,2.27,14.12,14.12,0,0,0-.15,2,21.82,21.82,0,0,0,1.21,3.78,6.51,6.51,0,0,0,3.93,3.49L154,214v.3h1.21a1.24,1.24,0,0,0,.76-.15.61.61,0,0,1,.45-.15l.91-.91q6.36-7.87,14.08-17.71l3.11-4A113.4,113.4,0,0,0,172.73,204c0,.2.15,1.11.45,2.72a4.28,4.28,0,0,0,3.17,3.32l14.8,5.43a15.21,15.21,0,0,0,3.32.45,5.8,5.8,0,0,0,4.53-2,81.71,81.71,0,0,0,6-7.55q3-4.22,5.44-7.85,2.72-4.22,5.13-8.75a60,60,0,0,0-.45,9.51c.1,3.12.25,5.49.45,7.09a2.61,2.61,0,0,0,1.21,2.12,41.26,41.26,0,0,0,9.06,3.32q5.73,1.51,8.45,2.41c.4,0,1.1-.05,2.11-.15a5.07,5.07,0,0,0,3-1.66A177.44,177.44,0,0,0,251.78,195q-.41,3.56-.56,7.17a8.18,8.18,0,0,0,4.84,7.85l10.86,3.62h.76c.3,0,.55-.3.75-.91a166.54,166.54,0,0,1,13.14-27.62,120.37,120.37,0,0,1,12.53-17.36,59.51,59.51,0,0,1,13-11.47,75.31,75.31,0,0,0-5.59,7.39,50.71,50.71,0,0,0-3.77,6.8c-.61,1.21-1.21,2.56-1.81,4.07s-1.31,3.28-2.12,5.29a103.48,103.48,0,0,0-3.62,22.34,8.17,8.17,0,0,0,4.83,7.85l10.87,3.62h.75c.31,0,.56-.3.76-.91a182.76,182.76,0,0,1,13.43-27.62,121.14,121.14,0,0,1,12.53-17.36A64.27,64.27,0,0,1,346,156.32a87.47,87.47,0,0,0-8.6,13,66.9,66.9,0,0,0-4.83,11.47A74.25,74.25,0,0,0,330.17,191q-.75,4.83-1.05,9.05a11.38,11.38,0,0,0,.9,4.53,8.45,8.45,0,0,0,4.23,5.44.86.86,0,0,1,.6.3q3,1.21,5.89,2.26t5,1.66a6.4,6.4,0,0,1,1.36.16,3.31,3.31,0,0,0,2-.46h.3c.2-.2.35-.3.46-.3s.25-.1.45-.3l.3-.3.3-.31q6.64-7.85,14.19-17.66c3.07-4,6-7.78,8.86-11.44a357,357,0,0,0-9.76,35.44,181.31,181.31,0,0,0-3.93,26.42,153.39,153.39,0,0,0-.3,15.85,15.12,15.12,0,0,0,1.36,3.62,6.26,6.26,0,0,0,4.08,3l11.47,3c.8,0,1.21-.5,1.21-1.51a108.59,108.59,0,0,1,1.81-25.06A270,270,0,0,1,386,218.06q3.77-13.14,8.6-25.36T404,170.81a113.33,113.33,0,0,1,14.34-11q5.28-3.16,8.3-3.77c2.21-.41,3.72,0,4.53,1.2q-3.93,14.49-10,22.95a58.9,58.9,0,0,1-12.08,13,41.86,41.86,0,0,1-14.49,7.55l5.74,12.68q0,.3.75.9a3.54,3.54,0,0,0,2.27.61,32.56,32.56,0,0,0,15.69-4.08A64.34,64.34,0,0,0,433,200.7a68.36,68.36,0,0,0,10.87-13.29c.28-.45.55-.9.82-1.35q-5.91,18.51-9,33.05a181.31,181.31,0,0,0-3.93,26.42,153.39,153.39,0,0,0-.3,15.85A14.7,14.7,0,0,0,432.8,265a6.23,6.23,0,0,0,4.08,3l11.47,3c.8,0,1.21-.5,1.21-1.51a108.59,108.59,0,0,1,1.81-25.06,270,270,0,0,1,6.19-26.41q3.76-13.14,8.6-25.36t9.36-21.89a113.33,113.33,0,0,1,14.34-11q5.28-3.16,8.3-3.77c2.21-.41,3.72,0,4.53,1.2q-3.93,14.49-10,22.95a58.9,58.9,0,0,1-12.08,13,41.86,41.86,0,0,1-14.49,7.55l5.74,12.68q0,.3.75.9a3.54,3.54,0,0,0,2.27.61,32.56,32.56,0,0,0,15.69-4.08A64.34,64.34,0,0,0,504.5,200.7a68.36,68.36,0,0,0,10.87-13.29A59.54,59.54,0,0,0,522,173.22,12.17,12.17,0,0,0,522.77,166.13Z"/><path class="cls-2" d="M241.64,88.69c-4,.14-8.28.2-12.77.2l-4.48,0a97.09,97.09,0,0,0-175.5,48.2,49.7,49.7,0,0,0-10.73,13.28,75.93,75.93,0,0,0-7.57,19.09c-.59,2.34-1.06,4.7-1.45,7.09a120.5,120.5,0,0,1,222.4-88.36C248.57,88.4,245.26,88.58,241.64,88.69Zm47.57,32.54C277.56,52.51,217.62,0,145.63,0,65.33,0,0,65.33,0,145.63S65.33,291.26,145.63,291.26a145.58,145.58,0,0,0,120.09-63.35H255.06A136.85,136.85,0,0,1,145.63,282.6c-75.53,0-137-61.44-137-137s61.44-137,137-137c67.2,0,123.25,48.64,134.79,112.57ZM145.63,242.75a96.52,96.52,0,0,1-37.52-7.54,51.47,51.47,0,0,1-12.37,5.39,64.13,64.13,0,0,1-19,3H75.72l-.26,0a120.27,120.27,0,0,0,158.13-15.63H197.17A96.52,96.52,0,0,1,145.63,242.75Z"/></g></g></svg>