<svg xmlns="http://www.w3.org/2000/svg" xmlns:xlink="http://www.w3.org/1999/xlink" viewBox="0 0 291.26 291.26"><defs><style>.cls-1{fill:#003f5c;}.cls-2{fill:url(#linear-gradient);}</style><linearGradient id="linear-gradient" x1="36.58" y1="243.98" x2="253.69" y2="48.17" gradientUnits="userSpaceOnUse"><stop offset="0.01" stop-color="#003f5c"/><stop offset="0.25" stop-color="#58508d"/><stop offset="0.5" stop-color="#bc5090"/><stop offset="0.76" stop-color="#ff6361"/><stop offset="1" stop-color="#ffa600"/></linearGradient></defs><g id="Layer_2" data-name="Layer 2"><g id="Layer_1-2" data-name="Layer 1"><path class="cls-1" d="M269.33,98.54a32.24,32.24,0,0,0-1.52-4.09c0-.19-.3-.3-.91-.3l-.3.3c-1.62,1-4.59,1.77-8.93,2.27s-9.58.86-15.74,1.06-12.92.26-20.28.15-15-.25-22.86-.45c.61-1,1.21-2,1.82-2.88a15.4,15.4,0,0,0,1.51-2.87c1.41-2.22,1.72-4,.91-5.45a6,6,0,0,0-2.72-2.73L188.5,78.11a6,6,0,0,0-4.24-.91A4.34,4.34,0,0,0,182,78.26l-1.36,1.36q-2.43,4.25-4.69,8.48t-4.39,8.47c-5.86-.2-10.14-.45-12.87-.75l-1.6-.19c.38-1,.72-2,1-3a19.07,19.07,0,0,0,.45-7.87,14.62,14.62,0,0,0-3.93-7.57A11.56,11.56,0,0,0,149.45,73a34,34,0,0,0-6.36-1.82A39.45,39.45,0,0,0,131.74,71a45.9,45.9,0,0,0-9.38,2.27,46.65,46.65,0,0,0-7,3.18A45.2,45.2,0,0,0,111.31,79a75.06,75.06,0,0,0-7.72,6.66A37.41,37.41,0,0,0,96,96.57a49.94,49.94,0,0,0-4.24,15.74q-1.07,9.09,2.27,20.59,3.93,13.32,6.36,22.7T104,172.25a69.74,69.74,0,0,1,1.06,13,70.15,70.15,0,0,1-1.36,11.81q-2.43,12.1-8.78,19.22t-13.32,7.11a13.86,13.86,0,0,1-7-2.12,19.85,19.85,0,0,1-6.51-6.5,35.88,35.88,0,0,1-4.54-10.9,48.39,48.39,0,0,1-1.06-15.29A56.49,56.49,0,0,1,65.29,173a94.36,94.36,0,0,1,5.6-13.62,78,78,0,0,1,6.66-10.9q3.48-4.69,6.21-7.72a1.77,1.77,0,0,0,.3-1.67c-.2-.5-.41-.95-.6-1.36a19.5,19.5,0,0,0-3.79-1.21,19.19,19.19,0,0,0-6.81,0c-4.64.41-8.28,1.36-10.9,2.88s-4.44,2.57-5.45,3.18a39,39,0,0,0-10.44,12.26,65.92,65.92,0,0,0-6.66,16.8,76.62,76.62,0,0,0-2.27,18.62,58.78,58.78,0,0,0,2.42,17.4,34.82,34.82,0,0,0,7.87,14.68,35.86,35.86,0,0,0,12.72,8.93,42.45,42.45,0,0,0,15.74,3.18,54.56,54.56,0,0,0,17.25-2.57,43.83,43.83,0,0,0,15.59-8.17A63.49,63.49,0,0,0,121,210.55a60.43,60.43,0,0,0,7.87-15.74,45.17,45.17,0,0,0,2.42-15.9A66.61,66.61,0,0,0,128.56,163q-2.43-8.33-5.15-16.05t-5.14-14.37a42.17,42.17,0,0,1-2.73-10.9,45.44,45.44,0,0,1,2-16.8,47.55,47.55,0,0,1,6.21-13.47q5.15-6.66,10.59-8.18h1.82a3.79,3.79,0,0,1,2.12.61,2.07,2.07,0,0,1,.6,1.51,3.73,3.73,0,0,1-.9,2.12c-.61,1-1.57,2.53-2.88,4.54s-2.78,4.34-4.39,7-3.13,5.35-4.54,8.18a38.93,38.93,0,0,0-3,7.87,20.1,20.1,0,0,0-.6,4.39q-.32,3.78,3,7.11a31.39,31.39,0,0,0,4.09,3.33A27.15,27.15,0,0,0,137,133.2h.6q.6-1.51,2-4.69c.91-2.12,1.86-4.39,2.88-6.81q2.1-3.93,4.69-8.48l.81-1.44,1-.07q5.31-.3,15-.3-1.51,3.33-3.78,9.08c-1.52,3.83-2.68,6.66-3.48,8.47q-1.53,3.34-4.09,10.45t-5.45,16.5q-2.88,9.38-5.3,20.58a217.94,217.94,0,0,0-3.63,22.4,16.12,16.12,0,0,1-.15,2.27,14.12,14.12,0,0,0-.15,2,21.82,21.82,0,0,0,1.21,3.78,6.51,6.51,0,0,0,3.93,3.49L154,214v.3h1.21a1.24,1.24,0,0,0,.76-.15.61.61,0,0,1,.45-.15l.91-.91q6.36-7.87,14.08-17.71t14.38-18.62q7.86-10,15.43-20.28l-7.56-.3q-4.54,5.14-10.6,11.2l-11.5,11.5q-5.46,5.44-9.23,9.39c-2.53,2.62-3.89,4-4.09,4.23.4-1.61.8-3.17,1.21-4.69s.8-3.07,1.21-4.69c.61-2.22,1.26-4.54,2-7s1.46-4.74,2.27-7q2.72-7.28,5.9-15.14t6.66-15.44q3.48-7.56,7-14.53l6.21-12.41,18.62.6q8.92.31,16,.61t12,.45c3.22.11,5.45.15,6.66.15h8.32a55.69,55.69,0,0,0,7.42-.45,14.18,14.18,0,0,0,5.9-2.12,8.39,8.39,0,0,0,3.48-5.3A12.46,12.46,0,0,0,269.33,98.54Z"/><path class="cls-2" d="M48.89,137.06a49.71,49.71,0,0,0-10.73,13.29,75.33,75.33,0,0,0-7.57,19.09c-.59,2.34-1.06,4.7-1.45,7.09a120.5,120.5,0,0,1,222.4-88.36c-3,.23-6.28.41-9.9.52-4,.13-8.28.2-12.77.2l-4.48,0a97.09,97.09,0,0,0-175.5,48.19Zm214.83-15.54a24.1,24.1,0,0,1-2.86.56,64,64,0,0,1-8.64.54H243.9c-1,0-2.46,0-3.92-.07A97.13,97.13,0,0,1,108.11,235.21a51.47,51.47,0,0,1-12.37,5.39,64.11,64.11,0,0,1-19,3H75.46a120.44,120.44,0,0,0,190.68-97.91A121.25,121.25,0,0,0,263.72,121.52Zm27.54,24.11c0,80.3-65.33,145.63-145.63,145.63S0,225.93,0,145.63,65.33,0,145.63,0,291.26,65.33,291.26,145.63Zm-8.66,0c0-75.53-61.44-137-137-137s-137,61.44-137,137,61.44,137,137,137S282.6,221.16,282.6,145.63Z"/></g></g></svg>